<svg xmlns="http://www.w3.org/2000/svg" xmlns:xlink="http://www.w3.org/1999/xlink" width="1920" zoomAndPan="magnify" viewBox="0 0 1440 809.999993" height="1080" preserveAspectRatio="xMidYMid meet" version="1.0"><defs><clipPath id="2c3632efff"><path d="M 38.640625 -738.984375 L 1785.808594 451.582031 L 1510.445312 855.679688 L -236.722656 -334.886719 Z M 38.640625 -738.984375 " clip-rule="nonzero"/></clipPath><clipPath id="0917f25ece"><path d="M 105.765625 -837.492188 L 2057.464844 492.445312 L 1184.492188 1773.539062 L -767.207031 443.601562 Z M 105.765625 -837.492188 " clip-rule="nonzero"/></clipPath><clipPath id="7525252057"><path d="M 35.367188 -681.945312 L 1762.703125 495.109375 L 1516.058594 857.0625 L -211.277344 -319.992188 Z M 35.367188 -681.945312 " clip-rule="nonzero"/></clipPath><clipPath id="37e3c3effd"><path d="M 46.3125 -698.007812 L 1904.425781 568.160156 L 1073.265625 1787.890625 L -784.84375 521.726562 Z M 46.3125 -698.007812 " clip-rule="nonzero"/></clipPath><clipPath id="e0cace55b6"><path d="M 104.101562 -439.792969 L 1672.769531 629.140625 L 1380.09375 1058.652344 L -188.578125 -10.285156 Z M 104.101562 -439.792969 " clip-rule="nonzero"/></clipPath><clipPath id="b3984f9624"><path d="M 106.605469 -443.472656 L 1675.277344 625.460938 L 973.777344 1654.921875 L -594.894531 585.988281 Z M 106.605469 -443.472656 " clip-rule="nonzero"/></clipPath><clipPath id="9b8577d658"><path d="M 0 0 L 1217 0 L 1217 810 L 0 810 Z M 0 0 " clip-rule="nonzero"/></clipPath><clipPath id="90fba6e1e7"><path d="M 116.921875 -225.171875 L 1373.84375 631.328125 L 1081.585938 1060.21875 L -175.335938 203.71875 Z M 116.921875 -225.171875 " clip-rule="nonzero"/></clipPath><clipPath id="c7bf4d1e44"><path d="M 116.921875 -225.171875 L 1373.84375 631.328125 L 811.714844 1456.261719 L -445.207031 599.761719 Z M 116.921875 -225.171875 " clip-rule="nonzero"/></clipPath><clipPath id="d096f66a54"><path d="M 0 92 L 1092 92 L 1092 810 L 0 810 Z M 0 92 " clip-rule="nonzero"/></clipPath><clipPath id="03bc09a7b9"><path d="M 53.339844 -74.414062 L 1240.222656 734.359375 L 958.949219 1147.136719 L -227.9375 338.359375 Z M 53.339844 -74.414062 " clip-rule="nonzero"/></clipPath><clipPath id="41f8b101f0"><path d="M 53.339844 -74.414062 L 1240.222656 734.359375 L 709.347656 1513.429688 L -477.539062 704.652344 Z M 53.339844 -74.414062 " clip-rule="nonzero"/></clipPath><clipPath id="c50623433b"><path d="M 0 229 L 783 229 L 783 810 L 0 810 Z M 0 229 " clip-rule="nonzero"/></clipPath><clipPath id="bd084185fd"><path d="M -84.539062 90.203125 L 907.117188 765.945312 L 681.164062 1097.527344 L -310.488281 421.789062 Z M -84.539062 90.203125 " clip-rule="nonzero"/></clipPath><clipPath id="5413530efb"><path d="M -84.539062 90.203125 L 907.117188 765.945312 L 463.660156 1416.714844 L -527.992188 740.976562 Z M -84.539062 90.203125 " clip-rule="nonzero"/></clipPath><clipPath id="54ffea473e"><path d="M 0 432 L 635 432 L 635 810 L 0 810 Z M 0 432 " clip-rule="nonzero"/></clipPath><clipPath id="e8fec91641"><path d="M -28.625 326.09375 L 729.988281 843.035156 L 390.851562 1340.722656 L -367.761719 823.78125 Z M -28.625 326.09375 " clip-rule="nonzero"/></clipPath><clipPath id="70582405db"><path d="M -28.625 326.09375 L 729.988281 843.035156 L 390.851562 1340.722656 L -367.761719 823.78125 Z M -28.625 326.09375 " clip-rule="nonzero"/></clipPath></defs><rect x="-144" width="1728" fill="#ffffff" y="-80.999999" height="971.999992" fill-opacity="1"/><rect x="-144" width="1728" fill="#fcd2af" y="-80.999999" height="971.999992" fill-opacity="1"/><g clip-path="url(#2c3632efff)"><g clip-path="url(#0917f25ece)"><path fill="#f9dcc4" d="M -199.5 -320.996094 C -163.925781 -361.628906 -136.777344 -408.84375 -104.132812 -451.859375 C -71.484375 -494.878906 -31.40625 -534.929688 19.515625 -552.90625 C 73.933594 -572.113281 134.628906 -563.796875 189.175781 -544.953125 C 243.722656 -526.109375 294.210938 -497.296875 347.203125 -474.449219 C 504.242188 -406.738281 681.046875 -392.261719 834.84375 -317.484375 C 926.226562 -273.058594 1009.429688 -205.292969 1054.683594 -114.320312 C 1085.882812 -51.609375 1097.664062 18.640625 1117.539062 85.804688 C 1127.476562 119.382812 1139.582031 152.523438 1156.898438 182.964844 C 1174.214844 213.40625 1196.957031 241.175781 1225.597656 261.328125 C 1272.664062 294.445312 1331.871094 304.785156 1389.234375 309.378906 C 1446.601562 313.972656 1504.980469 313.800781 1560.382812 329.375 C 1625.027344 347.550781 1683.054688 387.121094 1725.703125 438.992188 C 1768.351562 490.859375 1795.765625 554.664062 1806.753906 620.910156 C 1828.726562 753.40625 1784.570312 891.425781 1705.585938 1000.050781 C 1638.847656 1091.835938 1549.496094 1164.148438 1465.519531 1240.484375 C 1416.082031 1285.417969 1368.0625 1332.195312 1314.339844 1371.910156 C 1260.621094 1411.625 1200.386719 1444.390625 1134.832031 1457.28125 C 1078.367188 1468.386719 1019.757812 1464.375 963.386719 1452.792969 C 907.015625 1441.210938 852.476562 1422.214844 798.160156 1403.195312 C 643.03125 1348.871094 485.289062 1292.394531 354.746094 1192.515625 C 205.652344 1078.445312 100.625 914.109375 -50.152344 802.261719 C -98.347656 766.507812 -150.660156 736.570312 -198.699219 700.605469 C -246.742188 664.644531 -291.269531 621.457031 -316.84375 567.171875 C -345.46875 506.40625 -348.128906 436.804688 -345.066406 369.703125 C -342.007812 302.605469 -333.765625 235.132812 -342.5 168.535156 C -348.671875 121.488281 -363.191406 75.980469 -372.742188 29.503906 C -382.292969 -16.972656 -386.730469 -65.960938 -372.859375 -111.335938 C -359.457031 -155.164062 -329.984375 -192.300781 -297.703125 -224.832031 C -265.417969 -257.367188 -229.6875 -286.511719 -199.5 -320.996094 Z M -199.5 -320.996094 " fill-opacity="1" fill-rule="nonzero"/></g></g><g clip-path="url(#7525252057)"><g clip-path="url(#37e3c3effd)"><path fill="#f8edeb" d="M -244.292969 -206.308594 C -210.429688 -244.992188 -184.582031 -289.9375 -153.503906 -330.890625 C -122.425781 -371.84375 -84.273438 -409.972656 -35.792969 -427.085938 C 16.011719 -445.371094 73.792969 -437.453125 125.71875 -419.515625 C 177.648438 -401.574219 225.714844 -374.144531 276.164062 -352.394531 C 425.664062 -287.933594 593.976562 -274.152344 740.390625 -202.96875 C 827.386719 -160.671875 906.59375 -96.160156 949.675781 -9.554688 C 979.375 50.144531 990.589844 117.019531 1009.515625 180.960938 C 1018.976562 212.929688 1030.496094 244.476562 1046.984375 273.457031 C 1063.46875 302.4375 1085.117188 328.875 1112.386719 348.058594 C 1157.191406 379.585938 1213.554688 389.429688 1268.164062 393.800781 C 1322.777344 398.171875 1378.355469 398.011719 1431.097656 412.839844 C 1492.636719 430.140625 1547.878906 467.8125 1588.480469 517.191406 C 1629.078125 566.570312 1655.179688 627.3125 1665.640625 690.378906 C 1686.558594 816.511719 1644.519531 947.90625 1569.328125 1051.316406 C 1505.792969 1138.695312 1420.734375 1207.535156 1340.789062 1280.207031 C 1293.726562 1322.984375 1248.007812 1367.515625 1196.867188 1405.324219 C 1145.726562 1443.132812 1088.382812 1474.324219 1025.976562 1486.59375 C 972.222656 1497.167969 916.425781 1493.347656 862.761719 1482.320312 C 809.09375 1471.296875 757.175781 1453.210938 705.46875 1435.105469 C 557.785156 1383.386719 407.617188 1329.625 283.34375 1234.542969 C 141.40625 1125.945312 41.417969 969.5 -102.117188 863.023438 C -148 828.988281 -197.800781 800.484375 -243.535156 766.25 C -289.269531 732.011719 -331.65625 690.898438 -356.003906 639.21875 C -383.257812 581.371094 -385.789062 515.109375 -382.875 451.230469 C -379.960938 387.355469 -372.113281 323.121094 -380.429688 259.71875 C -386.304688 214.933594 -400.128906 171.609375 -409.222656 127.363281 C -418.3125 83.117188 -422.539062 36.480469 -409.332031 -6.714844 C -396.574219 -48.441406 -368.515625 -83.789062 -337.78125 -114.761719 C -307.050781 -145.734375 -273.03125 -173.480469 -244.292969 -206.308594 Z M -244.292969 -206.308594 " fill-opacity="1" fill-rule="nonzero"/></g></g><g clip-path="url(#e0cace55b6)"><g clip-path="url(#b3984f9624)"><path fill="#fae1dd" d="M -138.75 -28.335938 C -110.160156 -60.996094 -88.335938 -98.945312 -62.097656 -133.519531 C -35.859375 -168.097656 -3.648438 -200.289062 37.28125 -214.734375 C 81.023438 -230.175781 129.804688 -223.492188 173.648438 -208.34375 C 217.488281 -193.199219 258.070312 -170.039062 300.664062 -151.675781 C 426.882812 -97.253906 568.988281 -85.617188 692.605469 -25.515625 C 766.050781 10.191406 832.925781 64.65625 869.300781 137.777344 C 894.375 188.183594 903.84375 244.644531 919.820312 298.625 C 927.808594 325.617188 937.535156 352.253906 951.453125 376.71875 C 965.371094 401.1875 983.652344 423.507812 1006.671875 439.707031 C 1044.5 466.324219 1092.085938 474.632812 1138.195312 478.324219 C 1184.300781 482.015625 1231.226562 481.878906 1275.753906 494.398438 C 1327.714844 509.007812 1374.355469 540.808594 1408.632812 582.5 C 1442.910156 624.191406 1464.945312 675.472656 1473.777344 728.71875 C 1491.4375 835.210938 1455.945312 946.144531 1392.464844 1033.453125 C 1338.820312 1107.226562 1267.003906 1165.347656 1199.507812 1226.699219 C 1159.773438 1262.820312 1121.175781 1300.414062 1078 1332.335938 C 1034.820312 1364.257812 986.40625 1390.59375 933.71875 1400.953125 C 888.335938 1409.878906 841.226562 1406.652344 795.917969 1397.34375 C 750.609375 1388.035156 706.773438 1372.765625 663.121094 1357.480469 C 538.433594 1313.816406 411.648438 1268.421875 306.726562 1188.148438 C 186.890625 1096.460938 102.472656 964.375 -18.710938 874.480469 C -57.449219 845.746094 -99.496094 821.679688 -138.109375 792.777344 C -176.71875 763.871094 -212.507812 729.160156 -233.066406 685.527344 C -256.074219 636.6875 -258.210938 580.742188 -255.75 526.8125 C -253.292969 472.882812 -246.667969 418.652344 -253.6875 365.121094 C -258.648438 327.308594 -270.316406 290.730469 -277.996094 253.375 C -285.671875 216.019531 -289.238281 176.644531 -278.085938 140.175781 C -267.316406 104.949219 -243.628906 75.101562 -217.679688 48.953125 C -191.734375 22.804688 -163.011719 -0.621094 -138.75 -28.335938 Z M -138.75 -28.335938 " fill-opacity="1" fill-rule="nonzero"/></g></g><g clip-path="url(#9b8577d658)"><g clip-path="url(#90fba6e1e7)"><g clip-path="url(#c7bf4d1e44)"><path fill="#fcd5ce" d="M -79.679688 107.476562 C -56.769531 81.308594 -39.285156 50.898438 -18.257812 23.191406 C 2.765625 -4.511719 28.578125 -30.308594 61.375 -41.882812 C 96.421875 -54.253906 135.511719 -48.898438 170.644531 -36.761719 C 205.773438 -24.625 238.289062 -6.070312 272.417969 8.648438 C 373.558594 52.253906 487.425781 61.578125 586.480469 109.734375 C 645.335938 138.351562 698.921875 181.992188 728.066406 240.585938 C 748.160156 280.972656 755.746094 326.214844 768.546875 369.472656 C 774.949219 391.101562 782.746094 412.441406 793.898438 432.046875 C 805.050781 451.652344 819.695312 469.539062 838.144531 482.519531 C 868.457031 503.847656 906.585938 510.507812 943.53125 513.464844 C 980.476562 516.421875 1018.078125 516.3125 1053.757812 526.34375 C 1095.394531 538.046875 1132.765625 563.53125 1160.230469 596.941406 C 1187.699219 630.347656 1205.355469 671.4375 1212.433594 714.105469 C 1226.582031 799.4375 1198.144531 888.328125 1147.277344 958.285156 C 1104.292969 1017.402344 1046.746094 1063.972656 992.664062 1113.136719 C 960.824219 1142.078125 929.894531 1172.203125 895.296875 1197.78125 C 860.699219 1223.359375 821.90625 1244.460938 779.6875 1252.761719 C 743.320312 1259.914062 705.570312 1257.332031 669.265625 1249.871094 C 632.960938 1242.414062 597.835938 1230.179688 562.855469 1217.929688 C 462.945312 1182.941406 361.351562 1146.566406 277.277344 1082.242188 C 181.253906 1008.777344 113.609375 902.9375 16.507812 830.902344 C -14.535156 807.875 -48.226562 788.59375 -79.167969 765.433594 C -110.105469 742.269531 -138.785156 714.457031 -155.253906 679.492188 C -173.691406 640.359375 -175.402344 595.53125 -173.433594 552.316406 C -171.460938 509.101562 -166.152344 465.648438 -171.78125 422.753906 C -175.753906 392.453125 -185.105469 363.144531 -191.257812 333.210938 C -197.40625 303.277344 -200.265625 271.730469 -191.332031 242.503906 C -182.703125 214.277344 -163.71875 190.363281 -142.925781 169.410156 C -122.136719 148.457031 -99.125 129.6875 -79.679688 107.476562 Z M -79.679688 107.476562 " fill-opacity="1" fill-rule="nonzero"/></g></g></g><g clip-path="url(#d096f66a54)"><g clip-path="url(#03bc09a7b9)"><g clip-path="url(#41f8b101f0)"><path fill="#fec5bb" d="M -132.308594 239.695312 C -110.675781 214.980469 -94.164062 186.269531 -74.308594 160.105469 C -54.457031 133.945312 -30.082031 109.589844 0.886719 98.65625 C 33.980469 86.972656 70.894531 92.03125 104.066406 103.492188 C 137.238281 114.953125 167.945312 132.476562 200.171875 146.371094 C 295.675781 187.546875 403.199219 196.351562 496.734375 241.828125 C 552.308594 268.847656 602.90625 310.058594 630.429688 365.382812 C 649.402344 403.523438 656.566406 446.242188 668.65625 487.089844 C 674.699219 507.511719 682.0625 527.667969 692.59375 546.179688 C 703.125 564.691406 716.953125 581.582031 734.371094 593.835938 C 762.996094 613.976562 799 620.265625 833.890625 623.058594 C 868.777344 625.851562 904.28125 625.746094 937.972656 635.21875 C 977.289062 646.273438 1012.578125 670.335938 1038.511719 701.882812 C 1064.449219 733.429688 1081.125 772.230469 1087.804688 812.519531 C 1101.167969 893.09375 1074.3125 977.035156 1026.28125 1043.09375 C 985.691406 1098.914062 931.351562 1142.890625 880.28125 1189.316406 C 850.214844 1216.644531 821.011719 1245.089844 788.34375 1269.242188 C 755.671875 1293.394531 719.039062 1313.320312 679.171875 1321.160156 C 644.832031 1327.914062 609.1875 1325.476562 574.90625 1318.433594 C 540.625 1311.386719 507.457031 1299.835938 474.425781 1288.269531 C 380.082031 1255.230469 284.148438 1220.882812 204.761719 1160.144531 C 114.085938 1090.769531 50.210938 990.828125 -41.480469 922.808594 C -70.792969 901.066406 -102.605469 882.859375 -131.820312 860.988281 C -161.039062 839.113281 -188.117188 812.851562 -203.671875 779.835938 C -221.082031 742.882812 -222.695312 700.554688 -220.835938 659.746094 C -218.976562 618.9375 -213.960938 577.90625 -219.273438 537.402344 C -223.027344 508.792969 -231.859375 481.117188 -237.667969 452.851562 C -243.476562 424.585938 -246.171875 394.792969 -237.738281 367.199219 C -229.585938 340.542969 -211.664062 317.960938 -192.03125 298.175781 C -172.398438 278.390625 -150.667969 260.664062 -132.308594 239.695312 Z M -132.308594 239.695312 " fill-opacity="1" fill-rule="nonzero"/></g></g></g><g clip-path="url(#c50623433b)"><g clip-path="url(#bd084185fd)"><g clip-path="url(#5413530efb)"><path fill="#ffb5a7" d="M -239.671875 352.6875 C -221.59375 332.039062 -207.796875 308.042969 -191.207031 286.183594 C -174.617188 264.320312 -154.246094 243.964844 -128.367188 234.832031 C -100.710938 225.066406 -69.867188 229.292969 -42.144531 238.871094 C -14.425781 248.449219 11.234375 263.089844 38.164062 274.703125 C 117.972656 309.113281 207.824219 316.46875 285.988281 354.472656 C 332.429688 377.050781 374.710938 411.488281 397.710938 457.722656 C 413.566406 489.59375 419.554688 525.292969 429.65625 559.425781 C 434.707031 576.492188 440.855469 593.335938 449.65625 608.804688 C 458.457031 624.273438 470.015625 638.386719 484.570312 648.628906 C 508.488281 665.460938 538.578125 670.714844 567.730469 673.046875 C 596.886719 675.382812 626.554688 675.296875 654.710938 683.210938 C 687.5625 692.449219 717.054688 712.558594 738.726562 738.917969 C 760.402344 765.28125 774.335938 797.703125 779.917969 831.371094 C 791.085938 898.707031 768.644531 968.847656 728.503906 1024.050781 C 694.585938 1070.699219 649.179688 1107.449219 606.5 1146.242188 C 581.375 1169.078125 556.972656 1192.851562 529.671875 1213.035156 C 502.371094 1233.21875 471.757812 1249.871094 438.445312 1256.421875 C 409.746094 1262.0625 379.960938 1260.027344 351.3125 1254.140625 C 322.664062 1248.253906 294.949219 1238.597656 267.34375 1228.933594 C 188.507812 1201.324219 108.339844 1172.625 42 1121.867188 C -33.773438 1063.894531 -87.148438 980.375 -163.773438 923.535156 C -188.265625 905.367188 -214.851562 890.152344 -239.265625 871.875 C -263.679688 853.597656 -286.308594 831.648438 -299.308594 804.058594 C -313.855469 773.179688 -315.207031 737.808594 -313.652344 703.707031 C -312.097656 669.605469 -307.90625 635.316406 -312.347656 601.46875 C -315.484375 577.5625 -322.863281 554.433594 -327.714844 530.8125 C -332.570312 507.195312 -334.824219 482.296875 -327.773438 459.238281 C -320.964844 436.964844 -305.984375 418.09375 -289.582031 401.558594 C -273.175781 385.023438 -255.015625 370.214844 -239.671875 352.6875 Z M -239.671875 352.6875 " fill-opacity="1" fill-rule="nonzero"/></g></g></g><g clip-path="url(#54ffea473e)"><g clip-path="url(#e8fec91641)"><g clip-path="url(#70582405db)"><path fill="#e8a598" d="M -147.25 526.804688 C -133.425781 511.015625 -122.875 492.667969 -110.191406 475.949219 C -97.503906 459.234375 -81.929688 443.667969 -62.140625 436.683594 C -40.992188 429.21875 -17.40625 432.449219 3.789062 439.773438 C 24.984375 447.097656 44.605469 458.292969 65.199219 467.171875 C 126.222656 493.484375 194.929688 499.109375 254.695312 528.167969 C 290.207031 545.433594 322.539062 571.765625 340.125 607.117188 C 352.25 631.488281 356.828125 658.785156 364.550781 684.886719 C 368.414062 697.9375 373.117188 710.8125 379.847656 722.644531 C 386.574219 734.472656 395.414062 745.265625 406.542969 753.09375 C 424.832031 765.964844 447.839844 769.984375 470.132812 771.765625 C 492.425781 773.550781 515.109375 773.484375 536.640625 779.539062 C 561.761719 786.601562 584.3125 801.976562 600.882812 822.132812 C 617.457031 842.292969 628.109375 867.085938 632.378906 892.828125 C 640.917969 944.316406 623.757812 997.953125 593.066406 1040.164062 C 567.132812 1075.832031 532.410156 1103.933594 499.777344 1133.59375 C 480.566406 1151.058594 461.90625 1169.234375 441.027344 1184.667969 C 420.152344 1200.101562 396.746094 1212.832031 371.273438 1217.84375 C 349.328125 1222.15625 326.550781 1220.597656 304.648438 1216.097656 C 282.742188 1211.597656 261.546875 1204.214844 240.441406 1196.824219 C 180.15625 1175.714844 118.859375 1153.765625 68.128906 1114.953125 C 10.191406 1070.625 -30.621094 1006.765625 -89.214844 963.300781 C -107.941406 949.410156 -128.269531 937.773438 -146.941406 923.800781 C -165.609375 909.824219 -182.910156 893.042969 -192.851562 871.945312 C -203.972656 848.332031 -205.007812 821.285156 -203.816406 795.210938 C -202.628906 769.136719 -199.425781 742.914062 -202.820312 717.035156 C -205.21875 698.753906 -210.859375 681.070312 -214.574219 663.007812 C -218.285156 644.945312 -220.007812 625.910156 -214.617188 608.277344 C -209.410156 591.246094 -197.957031 576.816406 -185.410156 564.171875 C -172.867188 551.53125 -158.980469 540.207031 -147.25 526.804688 Z M -147.25 526.804688 " fill-opacity="1" fill-rule="nonzero"/></g></g></g></svg>